<svg width="40" height="40" viewBox="0 0 40 40" fill="none" xmlns="http://www.w3.org/2000/svg">
<path d="M34.6867 20.0001C34.6867 20.2487 34.5879 20.4871 34.4121 20.663C34.2363 20.8388 33.9978 20.9376 33.7492 20.9376H8.51324L18.1617 30.5876C18.2538 30.6734 18.3277 30.7769 18.3789 30.8919C18.4301 31.0069 18.4577 31.131 18.4599 31.2569C18.4621 31.3828 18.439 31.5078 18.3918 31.6245C18.3447 31.7413 18.2745 31.8473 18.1855 31.9363C18.0964 32.0254 17.9904 32.0956 17.8737 32.1427C17.7569 32.1899 17.6319 32.213 17.506 32.2108C17.3801 32.2086 17.256 32.181 17.141 32.1298C17.026 32.0785 16.9225 32.0047 16.8367 31.9126L5.58667 20.6626C5.41111 20.4868 5.3125 20.2485 5.3125 20.0001C5.3125 19.7516 5.41111 19.5133 5.58667 19.3376L16.8367 8.08755C17.0144 7.92195 17.2495 7.8318 17.4923 7.83608C17.7352 7.84037 17.9669 7.93876 18.1387 8.11052C18.3105 8.28229 18.4089 8.51402 18.4131 8.7569C18.4174 8.99978 18.3273 9.23483 18.1617 9.41255L8.51324 19.0626H33.7492C33.9978 19.0626 34.2363 19.1613 34.4121 19.3371C34.5879 19.513 34.6867 19.7514 34.6867 20.0001Z" fill="#FF6130"/>
</svg>
