<svg width="40" height="40" viewBox="0 0 40 40" fill="none" xmlns="http://www.w3.org/2000/svg">
<path d="M5.31332 20.0001C5.31332 20.2487 5.4121 20.4871 5.58791 20.663C5.76373 20.8388 6.00218 20.9376 6.25082 20.9376H31.4868L21.8383 30.5876C21.7462 30.6734 21.6723 30.7769 21.6211 30.8919C21.5699 31.0069 21.5423 31.131 21.5401 31.2569C21.5379 31.3828 21.561 31.5078 21.6082 31.6245C21.6553 31.7413 21.7255 31.8473 21.8145 31.9363C21.9036 32.0254 22.0096 32.0956 22.1263 32.1427C22.2431 32.1899 22.3681 32.213 22.494 32.2108C22.6199 32.2086 22.744 32.181 22.859 32.1298C22.974 32.0785 23.0775 32.0047 23.1633 31.9126L34.4133 20.6626C34.5889 20.4868 34.6875 20.2485 34.6875 20.0001C34.6875 19.7516 34.5889 19.5133 34.4133 19.3376L23.1633 8.08755C22.9856 7.92195 22.7505 7.8318 22.5077 7.83608C22.2648 7.84037 22.0331 7.93876 21.8613 8.11052C21.6895 8.28229 21.5911 8.51402 21.5869 8.7569C21.5826 8.99978 21.6727 9.23483 21.8383 9.41255L31.4868 19.0626H6.25082C6.00218 19.0626 5.76373 19.1613 5.58791 19.3371C5.4121 19.513 5.31332 19.7514 5.31332 20.0001Z" fill="#FF6130"/>
</svg>
